<svg width="40" height="40" viewBox="0 0 40 40" fill="none" xmlns="http://www.w3.org/2000/svg">
<path d="M36.4846 6.40625C34.5461 6.40625 32.969 7.98336 32.969 9.92188V17.4381C32.4389 17.1297 31.835 16.9645 31.2054 16.9645C30.2663 16.9645 29.3835 17.3303 28.7195 17.9943L23.3685 23.3453C22.2618 24.452 21.6523 25.9234 21.6523 27.4884V38.8281C21.6523 39.4753 22.177 40 22.8242 40H32.5784C33.2255 40 33.7502 39.4753 33.7502 38.8281V33.7142L39.0161 25.8154C39.6599 24.8498 40.0002 23.7258 40.0002 22.5651V9.92188C40.0002 7.98336 38.4231 6.40625 36.4846 6.40625ZM37.6565 22.5651C37.6565 23.2615 37.4523 23.9359 37.066 24.5152L31.6033 32.7094C31.4749 32.9019 31.4065 33.128 31.4065 33.3594V37.6562H23.9961V27.4885C23.9961 26.5495 24.3618 25.6667 25.0258 25.0027L30.3768 19.6516C30.5981 19.4303 30.8924 19.3084 31.2054 19.3084C31.5184 19.3084 31.8127 19.4303 32.0341 19.6516C32.491 20.1086 32.491 20.852 32.0341 21.309L27.8434 25.4996C27.3858 25.9572 27.3858 26.6992 27.8434 27.1569C28.301 27.6145 29.043 27.6145 29.5007 27.1569L34.0542 22.6034C34.8658 21.7918 35.3127 20.7128 35.3127 19.5651V9.92188C35.3127 9.2757 35.8384 8.75 36.4846 8.75C37.1308 8.75 37.6565 9.2757 37.6565 9.92188V22.5651Z" fill="#27AE60"/>
<path d="M11.2808 17.9943C10.6167 17.3303 9.73391 16.9645 8.79484 16.9645C8.16523 16.9645 7.56133 17.1297 7.03125 17.4381V9.92188C7.03125 7.98336 5.45414 6.40625 3.51562 6.40625C1.57711 6.40625 0 7.98336 0 9.92188V22.5651C0 23.7257 0.340312 24.8497 0.984062 25.8153L6.25 33.7142V38.8281C6.25 39.4753 6.77469 40 7.42188 40H17.176C17.8232 40 18.3479 39.4753 18.3479 38.8281V27.4885C18.3479 25.9234 17.7384 24.4521 16.6317 23.3454L11.2808 17.9943ZM8.39695 32.7094L2.93422 24.5152C2.54789 23.9359 2.34375 23.2615 2.34375 22.5651V9.92188C2.34375 9.2757 2.86945 8.75 3.51562 8.75C4.1618 8.75 4.6875 9.2757 4.6875 9.92188V19.565C4.6875 20.7127 5.13445 21.7917 5.94602 22.6034L10.4995 27.1568C10.957 27.6144 11.6991 27.6144 12.1567 27.1568C12.6144 26.6992 12.6144 25.9572 12.1567 25.4995L7.96578 21.3086C7.50922 20.8516 7.5093 20.1084 7.96609 19.6516C8.18742 19.4303 8.48172 19.3084 8.79477 19.3084C9.10773 19.3084 9.40203 19.4303 9.62336 19.6516L14.9744 25.0027C15.6384 25.6667 16.0041 26.5495 16.0041 27.4885V37.6562H8.59375V33.3594C8.59375 33.128 8.52531 32.9019 8.39695 32.7094Z" fill="#27AE60"/>
<path d="M31.3281 6.39945C31.3281 4.69008 30.6624 3.08305 29.4538 1.87438C28.2451 0.665703 26.638 0 24.9286 0C23.2192 0 21.6122 0.665703 20.4035 1.87438L20 2.27789L19.5965 1.87438C18.3878 0.665703 16.7807 0 15.0714 0C13.3621 0 11.755 0.665703 10.5463 1.87438C9.33758 3.08305 8.67188 4.69008 8.67188 6.39945C8.67188 8.10883 9.33758 9.71586 10.5463 10.9246L19.1713 19.5497C19.4002 19.7785 19.7001 19.893 19.9999 19.893C20.2998 19.893 20.5998 19.7785 20.8285 19.5497L29.4537 10.9246C30.6624 9.71586 31.3281 8.10883 31.3281 6.39945ZM27.7965 9.26734L20 17.0638L12.2036 9.26734C11.4375 8.50125 11.0156 7.48281 11.0156 6.39945C11.0156 5.31617 11.4375 4.29773 12.2036 3.53164C12.9696 2.76555 13.988 2.34375 15.0714 2.34375C16.1548 2.34375 17.1732 2.76555 17.9392 3.53164L19.1713 4.76375C19.3911 4.98352 19.6891 5.10703 19.9999 5.10703C20.3107 5.10703 20.6088 4.98359 20.8285 4.76375L22.0607 3.53164C22.8269 2.76555 23.8453 2.34375 24.9286 2.34375C26.0119 2.34375 27.0304 2.76555 27.7964 3.53164C28.5625 4.29773 28.9844 5.31617 28.9844 6.39945C28.9844 7.48281 28.5625 8.50125 27.7965 9.26734Z" fill="#27AE60"/>
</svg>
